$MeshFormat
4.1 0 8
$EndMeshFormat
$PhysicalNames
3
1 100 "Left_ids"
1 200 "Right_ids"
2 300 "Dominio_2D"
$EndPhysicalNames
$Entities
4 4 1 0
1 0 0 0 0 
2 200 0 0 0 
3 200 20 0 0 
4 0 20 0 0 
1 0 0 0 200 0 0 0 2 1 -2 
2 200 0 0 200 20 0 1 200 2 2 -3 
3 0 20 0 200 20 0 0 2 3 -4 
4 0 0 0 0 20 0 1 100 2 4 -1 
1 0 0 0 200 20 0 1 300 4 1 2 3 4 
$EndEntities
$Nodes
9 1111 1 1111
0 1 0 1
1
0 0 0
0 2 0 1
2
200 0 0
0 3 0 1
3
200 20 0
0 4 0 1
4
0 20 0
1 1 0 99
5
6
7
8
9
10
11
12
13
14
15
16
17
18
19
20
21
22
23
24
25
26
27
28
29
30
31
32
33
34
35
36
37
38
39
40
41
42
43
44
45
46
47
48
49
50
51
52
53
54
55
56
57
58
59
60
61
62
63
64
65
66
67
68
69
70
71
72
73
74
75
76
77
78
79
80
81
82
83
84
85
86
87
88
89
90
91
92
93
94
95
96
97
98
99
100
101
102
103
1.999999999992085 0 0
3.999999999984306 0 0
5.999999999976444 0 0
7.999999999968095 0 0
9.99999999995949 0 0
11.99999999995112 0 0
13.99999999994363 0 0
15.99999999993678 0 0
17.99999999992995 0 0
19.99999999992312 0 0
21.99999999991629 0 0
23.99999999990921 0 0
25.9999999999006 0 0
27.99999999989047 0 0
29.99999999988009 0 0
31.9999999998697 0 0
33.99999999985932 0 0
35.99999999984894 0 0
37.99999999983855 0 0
39.99999999982817 0 0
41.99999999981778 0 0
43.99999999980741 0 0
45.99999999979702 0 0
47.99999999978664 0 0
49.99999999977625 0 0
51.99999999976588 0 0
53.9999999997555 0 0
55.99999999974513 0 0
57.99999999973474 0 0
59.99999999972437 0 0
61.99999999971399 0 0
63.99999999970628 0 0
65.99999999970291 0 0
67.99999999969963 0 0
69.99999999969636 0 0
71.99999999969309 0 0
73.99999999968982 0 0
75.99999999968655 0 0
77.99999999968327 0 0
79.99999999968 0 0
81.99999999967675 0 0
83.99999999967346 0 0
85.99999999967019 0 0
87.99999999966693 0 0
89.99999999966364 0 0
91.99999999966039 0 0
93.99999999965711 0 0
95.99999999965384 0 0
97.99999999965057 0 0
99.99999999964729 0 0
101.999999999644 0 0
103.9999999996408 0 0
105.9999999996375 0 0
107.9999999996342 0 0
109.9999999996309 0 0
111.9999999996277 0 0
113.9999999996244 0 0
115.9999999996211 0 0
117.9999999996179 0 0
119.9999999996146 0 0
121.9999999996113 0 0
123.9999999996081 0 0
125.9999999996048 0 0
127.9999999996066 0 0
129.9999999996171 0 0
131.9999999996281 0 0
133.999999999639 0 0
135.9999999996499 0 0
137.9999999996609 0 0
139.9999999996718 0 0
141.9999999996828 0 0
143.9999999996937 0 0
145.9999999997046 0 0
147.9999999997156 0 0
149.9999999997265 0 0
151.9999999997375 0 0
153.9999999997484 0 0
155.9999999997593 0 0
157.9999999997703 0 0
159.9999999997812 0 0
161.9999999997922 0 0
163.9999999998031 0 0
165.999999999814 0 0
167.999999999825 0 0
169.9999999998359 0 0
171.9999999998469 0 0
173.9999999998578 0 0
175.9999999998687 0 0
177.9999999998797 0 0
179.9999999998906 0 0
181.9999999999015 0 0
183.9999999999125 0 0
185.9999999999234 0 0
187.9999999999343 0 0
189.9999999999453 0 0
191.9999999999563 0 0
193.9999999999672 0 0
195.9999999999781 0 0
197.9999999999891 0 0
1 2 0 9
104
105
106
107
108
109
110
111
112
200 1.999999999998378 0
200 3.999999999993648 0
200 5.999999999987806 0
200 7.999999999982034 0
200 9.999999999984798 0
200 11.99999999998784 0
200 13.99999999999088 0
200 15.99999999999392 0
200 17.99999999999696 0
1 3 0 99
113
114
115
116
117
118
119
120
121
122
123
124
125
126
127
128
129
130
131
132
133
134
135
136
137
138
139
140
141
142
143
144
145
146
147
148
149
150
151
152
153
154
155
156
157
158
159
160
161
162
163
164
165
166
167
168
169
170
171
172
173
174
175
176
177
178
179
180
181
182
183
184
185
186
187
188
189
190
191
192
193
194
195
196
197
198
199
200
201
202
203
204
205
206
207
208
209
210
211
198.0000000000142 20 0
196.0000000000284 20 0
194.0000000000426 20 0
192.0000000000568 20 0
190.0000000000711 20 0
188.0000000000853 20 0
186.0000000000995 20 0
184.0000000001137 20 0
182.0000000001279 20 0
180.0000000001421 20 0
178.0000000001563 20 0
176.0000000001705 20 0
174.0000000001847 20 0
172.000000000199 20 0
170.0000000002132 20 0
168.0000000002274 20 0
166.0000000002416 20 0
164.0000000002558 20 0
162.00000000027 20 0
160.0000000002842 20 0
158.0000000002984 20 0
156.0000000003126 20 0
154.0000000003268 20 0
152.0000000003411 20 0
150.0000000003553 20 0
148.0000000003695 20 0
146.0000000003837 20 0
144.0000000003979 20 0
142.0000000004121 20 0
140.0000000004263 20 0
138.0000000004405 20 0
136.0000000004547 20 0
134.000000000469 20 0
132.0000000004832 20 0
130.0000000004974 20 0
128.0000000005111 20 0
126.0000000005163 20 0
124.0000000005163 20 0
122.0000000005163 20 0
120.0000000005163 20 0
118.0000000005163 20 0
116.0000000005163 20 0
114.0000000005162 20 0
112.0000000005163 20 0
110.0000000005163 20 0
108.0000000005163 20 0
106.0000000005163 20 0
104.0000000005163 20 0
102.0000000005162 20 0
100.0000000005163 20 0
98.00000000051625 20 0
96.00000000051625 20 0
94.00000000051625 20 0
92.00000000051625 20 0
90.00000000051625 20 0
88.00000000051627 20 0
86.00000000051627 20 0
84.00000000051627 20 0
82.00000000051627 20 0
80.00000000051625 20 0
78.00000000051625 20 0
76.00000000051625 20 0
74.00000000051625 20 0
72.00000000051115 20 0
70.00000000049738 20 0
68.00000000048317 20 0
66.00000000046896 20 0
64.00000000045475 20 0
62.00000000044054 20 0
60.00000000042633 20 0
58.00000000041209 20 0
56.00000000039788 20 0
54.00000000038369 20 0
52.00000000036948 20 0
50.00000000035527 20 0
48.00000000034106 20 0
46.00000000032685 20 0
44.00000000031264 20 0
42.00000000029843 20 0
40.00000000028422 20 0
38.00000000027001 20 0
36.0000000002558 20 0
34.00000000024158 20 0
32.00000000022735 20 0
30.00000000021313 20 0
28.00000000019892 20 0
26.00000000018471 20 0
24.00000000017053 20 0
22.00000000015632 20 0
20.00000000014211 20 0
18.0000000001279 20 0
16.00000000011369 20 0
14.00000000009948 20 0
12.00000000008527 20 0
10.00000000007105 20 0
8.000000000056815 20 0
6.000000000042604 20 0
4.000000000028393 20 0
2.000000000014182 20 0
1 4 0 9
212
213
214
215
216
217
218
219
220
0 18 0
0 15.99999999999999 0
0 13.99999999999999 0
0 11.99999999999999 0
0 9.999999999999993 0
0 7.999999999999993 0
0 5.999999999999996 0
0 3.999999999999996 0
0 1.999999999999996 0
2 1 0 891
221
222
223
224
225
226
227
228
229
230
231
232
233
234
235
236
237
238
239
240
241
242
243
244
245
246
247
248
249
250
251
252
253
254
255
256
257
258
259
260
261
262
263
264
265
266
267
268
269
270
271
272
273
274
275
276
277
278
279
280
281
282
283
284
285
286
287
288
289
290
291
292
293
294
295
296
297
298
299
300
301
302
303
304
305
306
307
308
309
310
311
312
313
314
315
316
317
318
319
320
321
322
323
324
325
326
327
328
329
330
331
332
333
334
335
336
337
338
339
340
341
342
343
344
345
346
347
348
349
350
351
352
353
354
355
356
357
358
359
360
361
362
363
364
365
366
367
368
369
370
371
372
373
374
375
376
377
378
379
380
381
382
383
384
385
386
387
388
389
390
391
392
393
394
395
396
397
398
399
400
401
402
403
404
405
406
407
408
409
410
411
412
413
414
415
416
417
418
419
420
421
422
423
424
425
426
427
428
429
430
431
432
433
434
435
436
437
438
439
440
441
442
443
444
445
446
447
448
449
450
451
452
453
454
455
456
457
458
459
460
461
462
463
464
465
466
467
468
469
470
471
472
473
474
475
476
477
478
479
480
481
482
483
484
485
486
487
488
489
490
491
492
493
494
495
496
497
498
499
500
501
502
503
504
505
506
507
508
509
510
511
512
513
514
515
516
517
518
519
520
521
522
523
524
525
526
527
528
529
530
531
532
533
534
535
536
537
538
539
540
541
542
543
544
545
546
547
548
549
550
551
552
553
554
555
556
557
558
559
560
561
562
563
564
565
566
567
568
569
570
571
572
573
574
575
576
577
578
579
580
581
582
583
584
585
586
587
588
589
590
591
592
593
594
595
596
597
598
599
600
601
602
603
604
605
606
607
608
609
610
611
612
613
614
615
616
617
618
619
620
621
622
623
624
625
626
627
628
629
630
631
632
633
634
635
636
637
638
639
640
641
642
643
644
645
646
647
648
649
650
651
652
653
654
655
656
657
658
659
660
661
662
663
664
665
666
667
668
669
670
671
672
673
674
675
676
677
678
679
680
681
682
683
684
685
686
687
688
689
690
691
692
693
694
695
696
697
698
699
700
701
702
703
704
705
706
707
708
709
710
711
712
713
714
715
716
717
718
719
720
721
722
723
724
725
726
727
728
729
730
731
732
733
734
735
736
737
738
739
740
741
742
743
744
745
746
747
748
749
750
751
752
753
754
755
756
757
758
759
760
761
762
763
764
765
766
767
768
769
770
771
772
773
774
775
776
777
778
779
780
781
782
783
784
785
786
787
788
789
790
791
792
793
794
795
796
797
798
799
800
801
802
803
804
805
806
807
808
809
810
811
812
813
814
815
816
817
818
819
820
821
822
823
824
825
826
827
828
829
830
831
832
833
834
835
836
837
838
839
840
841
842
843
844
845
846
847
848
849
850
851
852
853
854
855
856
857
858
859
860
861
862
863
864
865
866
867
868
869
870
871
872
873
874
875
876
877
878
879
880
881
882
883
884
885
886
887
888
889
890
891
892
893
894
895
896
897
898
899
900
901
902
903
904
905
906
907
908
909
910
911
912
913
914
915
916
917
918
919
920
921
922
923
924
925
926
927
928
929
930
931
932
933
934
935
936
937
938
939
940
941
942
943
944
945
946
947
948
949
950
951
952
953
954
955
956
957
958
959
960
961
962
963
964
965
966
967
968
969
970
971
972
973
974
975
976
977
978
979
980
981
982
983
984
985
986
987
988
989
990
991
992
993
994
995
996
997
998
999
1000
1001
1002
1003
1004
1005
1006
1007
1008
1009
1010
1011
1012
1013
1014
1015
1016
1017
1018
1019
1020
1021
1022
1023
1024
1025
1026
1027
1028
1029
1030
1031
1032
1033
1034
1035
1036
1037
1038
1039
1040
1041
1042
1043
1044
1045
1046
1047
1048
1049
1050
1051
1052
1053
1054
1055
1056
1057
1058
1059
1060
1061
1062
1063
1064
1065
1066
1067
1068
1069
1070
1071
1072
1073
1074
1075
1076
1077
1078
1079
1080
1081
1082
1083
1084
1085
1086
1087
1088
1089
1090
1091
1092
1093
1094
1095
1096
1097
1098
1099
1100
1101
1102
1103
1104
1105
1106
1107
1108
1109
1110
1111
1.999999999994295 1.99999999999998 0
1.999999999996505 3.999999999999932 0
1.999999999998715 5.999999999999875 0
2.000000000000925 7.999999999999813 0
2.000000000003134 9.999999999999842 0
2.000000000005343 11.99999999999987 0
2.000000000007553 13.9999999999999 0
2.000000000009764 15.99999999999993 0
2.000000000011973 17.99999999999997 0
3.999999999988715 1.999999999999964 0
3.999999999993124 3.999999999999869 0
3.999999999997532 5.999999999999754 0
4.000000000001941 7.999999999999632 0
4.00000000000635 9.999999999999689 0
4.000000000010759 11.99999999999975 0
4.000000000015167 13.99999999999981 0
4.000000000019576 15.99999999999987 0
4.000000000023986 17.99999999999993 0
5.999999999983059 1.999999999999948 0
5.999999999989676 3.999999999999806 0
5.999999999996293 5.999999999999631 0
6.000000000002909 7.999999999999455 0
6.000000000009525 9.999999999999536 0
6.00000000001614 11.99999999999963 0
6.000000000022755 13.99999999999972 0
6.000000000029372 15.99999999999981 0
6.000000000035989 17.9999999999999 0
7.999999999976966 1.999999999999932 0
7.999999999985835 3.999999999999742 0
7.999999999994712 5.999999999999509 0
8.000000000003583 7.999999999999273 0
8.000000000012454 9.999999999999385 0
8.000000000021329 11.99999999999951 0
8.0000000000302 13.99999999999962 0
8.000000000039069 15.99999999999975 0
8.00000000004794 17.99999999999988 0
9.999999999970647 1.999999999999916 0
9.999999999981803 3.999999999999678 0
9.999999999992959 5.999999999999387 0
10.00000000000411 7.999999999999097 0
10.00000000001527 9.999999999999234 0
10.00000000002643 11.99999999999939 0
10.00000000003758 13.99999999999953 0
10.00000000004874 15.99999999999969 0
10.0000000000599 17.99999999999985 0
11.99999999996454 1.999999999999899 0
11.99999999997795 3.999999999999615 0
11.99999999999137 5.999999999999265 0
12.00000000000478 7.999999999998916 0
12.00000000001819 9.999999999999078 0
12.0000000000316 11.99999999999926 0
12.00000000004503 13.99999999999944 0
12.00000000005844 15.99999999999963 0
12.00000000007185 17.99999999999982 0
13.99999999995921 1.999999999999883 0
13.9999999999748 3.999999999999552 0
13.99999999999038 5.999999999999144 0
14.00000000000597 7.999999999998737 0
14.00000000002155 9.999999999998929 0
14.00000000003713 11.99999999999914 0
14.00000000005272 13.99999999999935 0
14.00000000006831 15.99999999999957 0
14.00000000008389 17.99999999999978 0
15.99999999995448 1.999999999999867 0
15.99999999997217 3.999999999999489 0
15.99999999998985 5.999999999999022 0
16.00000000000755 7.999999999998557 0
16.00000000002524 9.99999999999878 0
16.00000000004293 11.99999999999902 0
16.00000000006062 13.99999999999926 0
16.0000000000783 15.99999999999951 0
16.00000000009599 17.99999999999975 0
17.99999999994975 1.999999999999851 0
17.99999999996954 3.999999999999425 0
17.99999999998934 5.9999999999989 0
18.00000000000913 7.999999999998377 0
18.00000000002892 9.999999999998623 0
18.00000000004872 11.9999999999989 0
18.00000000006851 13.99999999999917 0
18.00000000008831 15.99999999999945 0
18.00000000010811 17.99999999999972 0
19.99999999994502 1.999999999999834 0
19.99999999996691 3.999999999999362 0
19.99999999998882 5.999999999998778 0
20.00000000001071 7.999999999998198 0
20.00000000003261 9.999999999998476 0
20.00000000005451 11.99999999999877 0
20.00000000007641 13.99999999999908 0
20.00000000009831 15.99999999999939 0
20.00000000012021 17.99999999999969 0
21.99999999994029 1.999999999999818 0
21.9999999999643 3.999999999999298 0
21.9999999999883 5.999999999998655 0
22.0000000000123 7.999999999998018 0
22.00000000003631 9.999999999998321 0
22.0000000000603 11.99999999999865 0
22.00000000008431 13.99999999999899 0
22.00000000010832 15.99999999999932 0
22.00000000013232 17.99999999999966 0
23.99999999993534 1.999999999999802 0
23.99999999996148 3.999999999999234 0
23.9999999999876 5.999999999998533 0
24.00000000001373 7.999999999997838 0
24.00000000003987 9.999999999998169 0
24.000000000066 11.99999999999853 0
24.00000000009214 13.99999999999889 0
24.00000000011826 15.99999999999926 0
24.00000000014439 17.99999999999963 0
25.99999999992902 1.999999999999786 0
25.99999999995742 3.999999999999171 0
25.99999999998583 5.999999999998412 0
26.00000000001425 7.999999999997659 0
26.00000000004265 9.999999999998018 0
26.00000000007107 11.99999999999841 0
26.00000000009948 13.99999999999881 0
26.00000000012789 15.9999999999992 0
26.0000000001563 17.99999999999961 0
27.99999999992132 1.99999999999977 0
27.99999999995217 3.999999999999107 0
27.999999999983 5.999999999998289 0
28.00000000001385 7.999999999997479 0
28.00000000004469 9.999999999997865 0
28.00000000007554 11.99999999999829 0
28.00000000010639 13.99999999999871 0
28.00000000013723 15.99999999999914 0
28.00000000016808 17.99999999999957 0
29.9999999999134 1.999999999999754 0
29.9999999999467 3.999999999999044 0
29.99999999998 5.999999999998169 0
30.00000000001331 7.999999999997298 0
30.00000000004661 9.999999999997712 0
30.00000000007991 11.99999999999817 0
30.00000000011322 13.99999999999862 0
30.00000000014653 15.99999999999908 0
30.00000000017982 17.99999999999954 0
31.99999999990546 1.999999999999738 0
31.99999999994124 3.99999999999898 0
31.999999999977 5.999999999998046 0
32.00000000001278 7.999999999997121 0
32.00000000004852 9.999999999997565 0
32.00000000008429 11.99999999999805 0
32.00000000012005 13.99999999999853 0
32.00000000015581 15.99999999999902 0
32.00000000019158 17.99999999999951 0
33.99999999989754 1.999999999999722 0
33.99999999993578 3.999999999998917 0
33.99999999997399 5.999999999997924 0
34.00000000001222 7.99999999999694 0
34.00000000005045 9.999999999997407 0
34.00000000008868 11.99999999999793 0
34.0000000001269 13.99999999999844 0
34.00000000016513 15.99999999999896 0
34.00000000020336 17.99999999999948 0
35.99999999988961 1.999999999999705 0
35.99999999993031 3.999999999998854 0
35.999999999971 5.999999999997803 0
36.00000000001168 7.999999999996759 0
36.00000000005237 9.999999999997259 0
36.00000000009305 11.9999999999978 0
36.00000000013374 13.99999999999835 0
36.00000000017442 15.9999999999989 0
36.00000000021511 17.99999999999945 0
37.99999999988169 1.999999999999689 0
37.99999999992483 3.99999999999879 0
37.99999999996798 5.99999999999768 0
38.00000000001113 7.999999999996581 0
38.00000000005428 9.999999999997106 0
38.00000000009744 11.99999999999768 0
38.00000000014057 13.99999999999826 0
38.00000000018373 15.99999999999884 0
38.00000000022688 17.99999999999942 0
39.99999999987378 1.999999999999673 0
39.99999999991938 3.999999999998727 0
39.99999999996498 5.999999999997558 0
40.00000000001059 7.999999999996403 0
40.00000000005619 9.999999999996954 0
40.00000000010179 11.99999999999756 0
40.00000000014739 13.99999999999817 0
40.000000000193 15.99999999999878 0
40.00000000023862 17.99999999999939 0
41.99999999986585 1.999999999999657 0
41.99999999991392 3.999999999998664 0
41.99999999996198 5.999999999997437 0
42.00000000001003 7.999999999996222 0
42.00000000005811 9.999999999996803 0
42.00000000010617 11.99999999999744 0
42.00000000015423 13.99999999999808 0
42.00000000020229 15.99999999999872 0
42.00000000025037 17.99999999999936 0
43.99999999985793 1.99999999999964 0
43.99999999990845 3.9999999999986 0
43.99999999995897 5.999999999997316 0
44.00000000000949 7.999999999996043 0
44.00000000006003 9.999999999996648 0
44.00000000011055 11.99999999999732 0
44.00000000016107 13.99999999999798 0
44.00000000021159 15.99999999999866 0
44.00000000026212 17.99999999999933 0
45.99999999985 1.999999999999624 0
45.99999999990298 3.999999999998537 0
45.99999999995596 5.999999999997194 0
46.00000000000894 7.999999999995863 0
46.00000000006193 9.999999999996499 0
46.00000000011491 11.9999999999972 0
46.0000000001679 13.99999999999789 0
46.00000000022088 15.9999999999986 0
46.00000000027386 17.99999999999929 0
47.99999999984209 1.999999999999608 0
47.99999999989753 3.999999999998472 0
47.99999999995296 5.999999999997071 0
48.0000000000084 7.999999999995683 0
48.00000000006384 9.999999999996346 0
48.00000000011929 11.99999999999707 0
48.00000000017474 13.9999999999978 0
48.00000000023017 15.99999999999854 0
48.00000000028561 17.99999999999927 0
49.99999999983415 1.999999999999591 0
49.99999999989206 3.999999999998409 0
49.99999999994996 5.999999999996949 0
50.00000000000786 7.999999999995503 0
50.00000000006577 9.999999999996193 0
50.00000000012366 11.99999999999695 0
50.00000000018159 13.99999999999771 0
50.00000000023946 15.99999999999847 0
50.00000000029736 17.99999999999924 0
51.99999999982623 1.999999999999575 0
51.9999999998866 3.999999999998346 0
51.99999999994697 5.999999999996827 0
52.00000000000733 7.999999999995324 0
52.00000000006767 9.999999999996044 0
52.00000000012805 11.99999999999683 0
52.00000000018841 13.99999999999762 0
52.00000000024877 15.99999999999841 0
52.00000000030911 17.99999999999921 0
53.99999999981833 1.999999999999559 0
53.99999999988114 3.999999999998282 0
53.99999999994397 5.999999999996705 0
54.00000000000678 7.999999999995145 0
54.0000000000696 9.99999999999589 0
54.00000000013242 11.99999999999671 0
54.00000000019523 13.99999999999752 0
54.00000000025805 15.99999999999836 0
54.00000000032087 17.99999999999918 0
55.99999999981042 1.999999999999543 0
55.99999999987568 3.999999999998218 0
55.99999999994096 5.999999999996584 0
56.00000000000624 7.999999999994965 0
56.00000000007149 9.999999999995739 0
56.00000000013678 11.99999999999659 0
56.00000000020206 13.99999999999744 0
56.00000000026732 15.99999999999829 0
56.00000000033261 17.99999999999915 0
57.99999999980247 1.999999999999527 0
57.9999999998702 3.999999999998155 0
57.99999999993794 5.999999999996461 0
58.00000000000567 7.999999999994785 0
58.00000000007341 9.999999999995586 0
58.00000000014114 11.99999999999647 0
58.00000000020889 13.99999999999735 0
58.00000000027661 15.99999999999823 0
58.00000000034436 17.99999999999912 0
59.99999999979457 1.999999999999511 0
59.99999999986475 3.999999999998091 0
59.99999999993494 5.99999999999634 0
60.00000000000516 7.999999999994606 0
60.00000000007535 9.999999999995435 0
60.00000000014555 11.99999999999635 0
60.00000000021575 13.99999999999726 0
60.00000000028594 15.99999999999817 0
60.00000000035612 17.99999999999908 0
61.99999999978665 1.999999999999495 0
61.99999999985931 3.999999999998028 0
61.99999999993196 5.999999999996218 0
62.00000000000461 7.999999999994425 0
62.00000000007726 9.999999999995284 0
62.00000000014991 11.99999999999622 0
62.00000000022258 13.99999999999716 0
62.00000000029522 15.99999999999811 0
62.00000000036788 17.99999999999905 0
63.99999999978112 1.999999999999479 0
63.99999999985599 3.999999999997965 0
63.99999999993082 5.999999999996096 0
64.00000000000566 7.999999999994246 0
64.00000000008052 9.999999999995131 0
64.00000000015538 11.9999999999961 0
64.0000000002302 13.99999999999707 0
64.00000000030504 15.99999999999805 0
64.00000000037991 17.99999999999903 0
65.99999999977952 1.999999999999462 0
65.9999999998561 3.999999999997902 0
65.99999999993271 5.999999999995973 0
66.00000000000931 7.999999999994068 0
66.00000000008593 9.999999999994978 0
66.00000000016253 11.99999999999598 0
66.00000000023915 13.99999999999698 0
66.00000000031575 15.99999999999799 0
66.00000000039235 17.99999999999899 0
67.99999999977797 1.999999999999446 0
67.99999999985633 3.999999999997838 0
67.99999999993469 5.999999999995852 0
68.00000000001306 7.999999999993888 0
68.0000000000914 9.999999999994829 0
68.00000000016973 11.99999999999586 0
68.00000000024812 13.99999999999689 0
68.00000000032645 15.99999999999793 0
68.00000000040481 17.99999999999897 0
69.99999999977648 1.99999999999943 0
69.99999999985657 3.999999999997775 0
69.99999999993666 5.99999999999573 0
70.00000000001675 7.999999999993707 0
70.00000000009685 9.999999999994671 0
70.00000000017698 11.99999999999574 0
70.00000000025709 13.9999999999968 0
70.00000000033718 15.99999999999787 0
70.00000000041727 17.99999999999894 0
71.9999999997749 1.999999999999414 0
71.9999999998567 3.999999999997711 0
71.99999999993851 5.999999999995609 0
72.00000000002034 7.999999999993529 0
72.00000000010212 9.999999999994523 0
72.00000000018392 11.99999999999562 0
72.00000000026571 13.99999999999671 0
72.00000000034754 15.99999999999781 0
72.00000000042934 17.99999999999891 0
73.99999999977247 1.999999999999397 0
73.99999999985511 3.999999999997647 0
73.99999999993776 5.999999999995487 0
74.00000000002038 7.999999999993348 0
74.00000000010303 9.999999999994367 0
74.00000000018568 11.9999999999955 0
74.00000000026833 13.99999999999662 0
74.00000000035098 15.99999999999775 0
74.00000000043363 17.99999999999887 0
75.99999999976954 1.999999999999381 0
75.99999999985248 3.999999999997584 0
75.99999999993544 5.999999999995364 0
76.00000000001843 7.999999999993169 0
76.00000000010139 9.999999999994218 0
76.00000000018439 11.99999999999537 0
76.00000000026733 13.99999999999653 0
76.00000000035031 15.99999999999769 0
76.00000000043327 17.99999999999884 0
77.99999999976654 1.999999999999365 0
77.99999999984988 3.999999999997521 0
77.99999999993314 5.999999999995243 0
78.00000000001646 7.999999999992989 0
78.00000000009976 9.999999999994067 0
78.00000000018306 11.99999999999525 0
78.00000000026635 13.99999999999644 0
78.00000000034964 15.99999999999763 0
78.00000000043295 17.99999999999881 0
79.99999999976363 1.999999999999349 0
79.99999999984726 3.999999999997457 0
79.99999999993088 5.99999999999512 0
80.0000000000145 7.999999999992809 0
80.00000000009814 9.999999999993912 0
80.00000000018176 11.99999999999513 0
80.00000000026537 13.99999999999634 0
80.000000000349 15.99999999999757 0
80.00000000043261 17.99999999999878 0
81.99999999976069 1.999999999999333 0
81.99999999984465 3.999999999997394 0
81.9999999999286 5.999999999994998 0
82.00000000001255 7.99999999999263 0
82.00000000009649 9.999999999993763 0
82.00000000018045 11.99999999999501 0
82.00000000026441 13.99999999999625 0
82.00000000034838 15.9999999999975 0
82.00000000043229 17.99999999999875 0
83.99999999975775 1.999999999999317 0
83.99999999984205 3.99999999999733 0
83.99999999992632 5.999999999994877 0
84.0000000000106 7.99999999999245 0
84.00000000009486 9.999999999993614 0
84.00000000017917 11.99999999999489 0
84.00000000026344 13.99999999999616 0
84.00000000034768 15.99999999999745 0
84.000000000432 17.99999999999872 0
85.99999999975482 1.9999999999993 0
85.99999999983939 3.999999999997266 0
85.999999999924 5.999999999994754 0
86.00000000000863 7.999999999992271 0
86.00000000009325 9.999999999993456 0
86.00000000017783 11.99999999999477 0
86.00000000026245 13.99999999999607 0
86.00000000034706 15.99999999999738 0
86.00000000043165 17.9999999999987 0
87.99999999975185 1.999999999999284 0
87.99999999983677 3.999999999997203 0
87.99999999992176 5.999999999994634 0
88.00000000000668 7.999999999992092 0
88.0000000000916 9.999999999993308 0
88.0000000001765 11.99999999999465 0
88.00000000026148 13.99999999999598 0
88.00000000034643 15.99999999999732 0
88.00000000043133 17.99999999999866 0
89.99999999974891 1.999999999999268 0
89.99999999983416 3.99999999999714 0
89.99999999991944 5.999999999994511 0
90.00000000000472 7.999999999991912 0
90.00000000008993 9.999999999993152 0
90.00000000017521 11.99999999999452 0
90.00000000026046 13.99999999999589 0
90.00000000034572 15.99999999999726 0
90.00000000043099 17.99999999999863 0
91.99999999974598 1.999999999999252 0
91.99999999983154 3.999999999997076 0
91.99999999991712 5.999999999994388 0
92.00000000000273 7.999999999991731 0
92.00000000008831 9.999999999993003 0
92.00000000017391 11.9999999999944 0
92.00000000025946 13.9999999999958 0
92.00000000034507 15.9999999999972 0
92.00000000043067 17.9999999999986 0
93.99999999974303 1.999999999999236 0
93.99999999982896 3.999999999997013 0
93.99999999991485 5.999999999994268 0
94.00000000000077 7.999999999991553 0
94.00000000008666 9.999999999992854 0
94.00000000017261 11.99999999999428 0
94.0000000002585 13.99999999999571 0
94.00000000034444 15.99999999999714 0
94.00000000043033 17.99999999999857 0
95.99999999974007 1.999999999999219 0
95.99999999982631 3.999999999996949 0
95.99999999991257 5.999999999994145 0
95.99999999999881 7.999999999991372 0
96.00000000008507 9.999999999992697 0
96.0000000001713 11.99999999999416 0
96.00000000025753 13.99999999999562 0
96.00000000034376 15.99999999999708 0
96.00000000043001 17.99999999999854 0
97.99999999973716 1.999999999999203 0
97.9999999998237 3.999999999996886 0
97.99999999991029 5.999999999994023 0
97.99999999999685 7.999999999991194 0
98.00000000008342 9.999999999992548 0
98.00000000017 11.99999999999404 0
98.00000000025653 13.99999999999552 0
98.00000000034311 15.99999999999702 0
98.00000000042968 17.99999999999851 0
99.99999999973417 1.999999999999187 0
99.99999999982106 3.999999999996822 0
99.99999999990798 5.999999999993902 0
99.99999999999484 7.999999999991013 0
100.0000000000817 9.999999999992397 0
100.0000000001687 11.99999999999391 0
100.0000000002556 13.99999999999543 0
100.0000000003424 15.99999999999696 0
100.0000000004293 17.99999999999848 0
101.9999999997312 1.999999999999171 0
101.9999999998185 3.999999999996758 0
101.9999999999057 5.999999999993779 0
101.9999999999929 7.999999999990834 0
102.0000000000801 9.999999999992244 0
102.0000000001673 11.9999999999938 0
102.0000000002546 13.99999999999534 0
102.0000000003418 15.99999999999689 0
102.000000000429 17.99999999999845 0
103.9999999997283 1.999999999999154 0
103.9999999998159 3.999999999996695 0
103.9999999999034 5.999999999993657 0
103.9999999999909 7.999999999990655 0
104.0000000000785 9.999999999992095 0
104.0000000001661 11.99999999999367 0
104.0000000002536 13.99999999999525 0
104.0000000003411 15.99999999999683 0
104.0000000004287 17.99999999999841 0
105.9999999997254 1.999999999999138 0
105.9999999998132 3.999999999996632 0
105.9999999999011 5.999999999993536 0
105.9999999999889 7.999999999990473 0
106.0000000000769 9.999999999991939 0
106.0000000001647 11.99999999999355 0
106.0000000002526 13.99999999999516 0
106.0000000003405 15.99999999999678 0
106.0000000004284 17.99999999999838 0
107.9999999997224 1.999999999999122 0
107.9999999998106 3.999999999996568 0
107.9999999998988 5.999999999993413 0
107.999999999987 7.999999999990296 0
108.0000000000752 9.99999999999179 0
108.0000000001634 11.99999999999343 0
108.0000000002516 13.99999999999507 0
108.0000000003399 15.99999999999671 0
108.000000000428 17.99999999999836 0
109.9999999997195 1.999999999999106 0
109.999999999808 3.999999999996505 0
109.9999999998965 5.999999999993292 0
109.9999999999851 7.999999999990116 0
110.0000000000736 9.999999999991637 0
110.0000000001621 11.99999999999331 0
110.0000000002507 13.99999999999498 0
110.0000000003392 15.99999999999665 0
110.0000000004277 17.99999999999833 0
111.9999999997166 1.99999999999909 0
111.9999999998054 3.999999999996441 0
111.9999999998942 5.99999999999317 0
111.9999999999831 7.999999999989935 0
112.000000000072 9.999999999991484 0
112.0000000001608 11.99999999999319 0
112.0000000002497 13.99999999999488 0
112.0000000003385 15.99999999999659 0
112.0000000004274 17.9999999999983 0
113.9999999997136 1.999999999999074 0
113.9999999998028 3.999999999996378 0
113.999999999892 5.999999999993047 0
113.9999999999811 7.999999999989756 0
114.0000000000703 9.999999999991335 0
114.0000000001595 11.99999999999307 0
114.0000000002487 13.9999999999948 0
114.0000000003379 15.99999999999653 0
114.0000000004271 17.99999999999827 0
115.9999999997106 1.999999999999058 0
115.9999999998001 3.999999999996314 0
115.9999999998896 5.999999999992927 0
115.9999999999792 7.999999999989576 0
116.0000000000687 9.99999999999118 0
116.0000000001582 11.99999999999294 0
116.0000000002477 13.9999999999947 0
116.0000000003372 15.99999999999647 0
116.0000000004268 17.99999999999824 0
117.9999999997077 1.999999999999041 0
117.9999999997975 3.999999999996251 0
117.9999999998874 5.999999999992805 0
117.9999999999772 7.999999999989397 0
118.000000000067 9.999999999991029 0
118.0000000001569 11.99999999999282 0
118.0000000002467 13.99999999999461 0
118.0000000003366 15.99999999999641 0
118.0000000004264 17.9999999999982 0
119.9999999997047 1.999999999999025 0
119.9999999997949 3.999999999996188 0
119.9999999998851 5.999999999992683 0
119.9999999999752 7.999999999989218 0
120.0000000000655 9.999999999990878 0
120.0000000001556 11.9999999999927 0
120.0000000002457 13.99999999999452 0
120.0000000003359 15.99999999999635 0
120.0000000004261 17.99999999999817 0
121.9999999997018 1.999999999999009 0
121.9999999997923 3.999999999996124 0
121.9999999998828 5.999999999992561 0
121.9999999999733 7.999999999989038 0
122.0000000000638 9.999999999990724 0
122.0000000001543 11.99999999999258 0
122.0000000002448 13.99999999999443 0
122.0000000003353 15.99999999999629 0
122.0000000004258 17.99999999999814 0
123.9999999996989 1.999999999998993 0
123.9999999997897 3.99999999999606 0
123.9999999998805 5.999999999992439 0
123.9999999999713 7.999999999988859 0
124.0000000000622 9.999999999990573 0
124.000000000153 11.99999999999246 0
124.0000000002438 13.99999999999434 0
124.0000000003346 15.99999999999623 0
124.0000000004254 17.99999999999812 0
125.9999999996959 1.999999999998976 0
125.9999999997871 3.999999999995997 0
125.9999999998782 5.999999999992317 0
125.9999999999694 7.999999999988679 0
126.0000000000605 9.99999999999042 0
126.0000000001517 11.99999999999234 0
126.0000000002428 13.99999999999425 0
126.000000000334 15.99999999999617 0
126.0000000004251 17.99999999999809 0
127.9999999996971 1.99999999999896 0
127.9999999997875 3.999999999995934 0
127.999999999878 5.999999999992195 0
127.9999999999684 7.999999999988498 0
128.0000000000589 9.999999999990269 0
128.0000000001493 11.99999999999221 0
128.0000000002398 13.99999999999416 0
128.0000000003302 15.99999999999611 0
128.0000000004207 17.99999999999806 0
129.9999999997051 1.999999999998944 0
129.9999999997931 3.99999999999587 0
129.9999999998812 5.999999999992072 0
129.9999999999692 7.99999999998832 0
130.0000000000572 9.999999999990118 0
130.0000000001452 11.99999999999209 0
130.0000000002332 13.99999999999407 0
130.0000000003213 15.99999999999605 0
130.0000000004093 17.99999999999803 0
131.9999999997136 1.999999999998928 0
131.9999999997991 3.999999999995807 0
131.9999999998846 5.999999999991952 0
131.9999999999701 7.999999999988141 0
132.0000000000556 9.999999999989962 0
132.0000000001411 11.99999999999197 0
132.0000000002266 13.99999999999397 0
132.0000000003122 15.99999999999599 0
132.0000000003977 17.999999999998 0
133.999999999722 1.999999999998912 0
133.999999999805 3.999999999995743 0
133.999999999888 5.999999999991831 0
133.999999999971 7.99999999998796 0
134.000000000054 9.999999999989813 0
134.000000000137 11.99999999999185 0
134.00000000022 13.99999999999388 0
134.0000000003029 15.99999999999593 0
134.0000000003859 17.99999999999796 0
135.9999999997303 1.999999999998896 0
135.9999999998109 3.99999999999568 0
135.9999999998914 5.999999999991708 0
135.9999999999718 7.99999999998778 0
136.0000000000523 9.999999999989662 0
136.0000000001328 11.99999999999173 0
136.0000000002133 13.99999999999379 0
136.0000000002938 15.99999999999586 0
136.0000000003743 17.99999999999793 0
137.9999999997388 1.99999999999888 0
137.9999999998168 3.999999999995616 0
137.9999999998948 5.999999999991585 0
137.9999999999727 7.999999999987602 0
138.0000000000507 9.999999999989507 0
138.0000000001287 11.9999999999916 0
138.0000000002066 13.9999999999937 0
138.0000000002846 15.9999999999958 0
138.0000000003625 17.9999999999979 0
139.9999999997472 1.999999999998863 0
139.9999999998227 3.999999999995553 0
139.9999999998982 5.999999999991465 0
139.9999999999736 7.999999999987422 0
140.0000000000491 9.99999999998936 0
140.0000000001245 11.99999999999149 0
140.0000000001999 13.99999999999361 0
140.0000000002754 15.99999999999574 0
140.0000000003509 17.99999999999788 0
141.9999999997557 1.999999999998847 0
141.9999999998287 3.999999999995488 0
141.9999999999015 5.99999999999134 0
141.9999999999745 7.999999999987242 0
142.0000000000474 9.999999999989207 0
142.0000000001204 11.99999999999137 0
142.0000000001933 13.99999999999352 0
142.0000000002663 15.99999999999569 0
142.0000000003392 17.99999999999784 0
143.9999999997641 1.999999999998831 0
143.9999999998345 3.999999999995426 0
143.999999999905 5.99999999999122 0
143.9999999999753 7.999999999987063 0
144.0000000000458 9.999999999989052 0
144.0000000001162 11.99999999999124 0
144.0000000001866 13.99999999999343 0
144.0000000002571 15.99999999999562 0
144.0000000003275 17.99999999999782 0
145.9999999997725 1.999999999998815 0
145.9999999998404 3.999999999995362 0
145.9999999999084 5.9999999999911 0
145.9999999999762 7.999999999986883 0
146.0000000000442 9.999999999988905 0
146.0000000001121 11.99999999999112 0
146.00000000018 13.99999999999334 0
146.0000000002479 15.99999999999556 0
146.0000000003158 17.99999999999778 0
147.9999999997809 1.999999999998799 0
147.9999999998464 3.999999999995299 0
147.9999999999118 5.999999999990977 0
147.9999999999771 7.999999999986704 0
148.0000000000425 9.999999999988747 0
148.0000000001079 11.999999999991 0
148.0000000001733 13.99999999999325 0
148.0000000002387 15.9999999999955 0
148.0000000003041 17.99999999999774 0
149.9999999997894 1.999999999998782 0
149.9999999998523 3.999999999995236 0
149.9999999999151 5.999999999990854 0
149.999999999978 7.999999999986523 0
150.0000000000409 9.999999999988599 0
150.0000000001038 11.99999999999088 0
150.0000000001666 13.99999999999316 0
150.0000000002295 15.99999999999544 0
150.0000000002924 17.99999999999772 0
151.9999999997978 1.999999999998766 0
151.9999999998581 3.999999999995172 0
151.9999999999185 5.999999999990734 0
151.9999999999789 7.999999999986345 0
152.0000000000393 9.999999999988445 0
152.0000000000996 11.99999999999076 0
152.00000000016 13.99999999999307 0
152.0000000002204 15.99999999999538 0
152.0000000002807 17.99999999999769 0
153.9999999998063 1.99999999999875 0
153.9999999998641 3.999999999995108 0
153.999999999922 5.999999999990608 0
153.9999999999798 7.999999999986164 0
154.0000000000376 9.999999999988294 0
154.0000000000955 11.99999999999063 0
154.0000000001533 13.99999999999297 0
154.0000000002112 15.99999999999531 0
154.000000000269 17.99999999999766 0
155.9999999998146 1.999999999998734 0
155.9999999998699 3.999999999995045 0
155.9999999999253 5.999999999990488 0
155.9999999999806 7.999999999985985 0
156.0000000000359 9.999999999988143 0
156.0000000000913 11.99999999999051 0
156.0000000001467 13.99999999999288 0
156.000000000202 15.99999999999526 0
156.0000000002573 17.99999999999763 0
157.999999999823 1.999999999998717 0
157.9999999998759 3.999999999994982 0
157.9999999999287 5.999999999990367 0
157.9999999999815 7.999999999985806 0
158.0000000000344 9.999999999987988 0
158.0000000000872 11.99999999999039 0
158.00000000014 13.99999999999279 0
158.0000000001928 15.99999999999519 0
158.0000000002456 17.9999999999976 0
159.9999999998315 1.999999999998701 0
159.9999999998818 3.999999999994918 0
159.9999999999321 5.999999999990244 0
159.9999999999824 7.999999999985626 0
160.0000000000327 9.999999999987837 0
160.000000000083 11.99999999999027 0
160.0000000001333 13.9999999999927 0
160.0000000001837 15.99999999999514 0
160.0000000002339 17.99999999999757 0
161.9999999998399 1.999999999998685 0
161.9999999998878 3.999999999994855 0
161.9999999999355 5.999999999990123 0
161.9999999999833 7.999999999985446 0
162.0000000000311 9.999999999987686 0
162.0000000000788 11.99999999999015 0
162.0000000001266 13.99999999999261 0
162.0000000001744 15.99999999999507 0
162.0000000002222 17.99999999999753 0
163.9999999998484 1.999999999998669 0
163.9999999998936 3.999999999994791 0
163.9999999999389 5.999999999990001 0
163.9999999999842 7.999999999985267 0
164.0000000000295 9.999999999987532 0
164.0000000000747 11.99999999999003 0
164.00000000012 13.99999999999252 0
164.0000000001653 15.99999999999501 0
164.0000000002105 17.9999999999975 0
165.9999999998568 1.999999999998653 0
165.9999999998996 3.999999999994728 0
165.9999999999423 5.999999999989878 0
165.9999999999851 7.999999999985087 0
166.0000000000278 9.999999999987383 0
166.0000000000706 11.99999999998991 0
166.0000000001133 13.99999999999242 0
166.0000000001561 15.99999999999495 0
166.0000000001988 17.99999999999747 0
167.9999999998652 1.999999999998637 0
167.9999999999055 3.999999999994663 0
167.9999999999457 5.999999999989757 0
167.9999999999859 7.999999999984906 0
168.0000000000261 9.999999999987232 0
168.0000000000664 11.99999999998979 0
168.0000000001066 13.99999999999233 0
168.0000000001469 15.99999999999489 0
168.0000000001871 17.99999999999745 0
169.9999999998736 1.99999999999862 0
169.9999999999113 3.9999999999946 0
169.9999999999491 5.999999999989635 0
169.9999999999868 7.999999999984729 0
170.0000000000246 9.999999999987079 0
170.0000000000623 11.99999999998966 0
170.0000000001 13.99999999999224 0
170.0000000001377 15.99999999999483 0
170.0000000001755 17.99999999999742 0
171.9999999998821 1.999999999998604 0
171.9999999999173 3.999999999994537 0
171.9999999999525 5.999999999989512 0
171.9999999999877 7.999999999984547 0
172.000000000023 9.999999999986924 0
172.0000000000581 11.99999999998954 0
172.0000000000933 13.99999999999215 0
172.0000000001286 15.99999999999477 0
172.0000000001637 17.99999999999739 0
173.9999999998905 1.999999999998588 0
173.9999999999232 3.999999999994473 0
173.9999999999559 5.999999999989392 0
173.9999999999886 7.99999999998437 0
174.0000000000213 9.999999999986773 0
174.000000000054 11.99999999998941 0
174.0000000000867 13.99999999999206 0
174.0000000001193 15.99999999999471 0
174.000000000152 17.99999999999735 0
175.9999999998989 1.999999999998572 0
175.9999999999291 3.99999999999441 0
175.9999999999593 5.999999999989269 0
175.9999999999895 7.999999999984189 0
176.0000000000196 9.999999999986624 0
176.0000000000498 11.9999999999893 0
176.00000000008 13.99999999999197 0
176.0000000001101 15.99999999999465 0
176.0000000001403 17.99999999999732 0
177.9999999999073 1.999999999998556 0
177.999999999935 3.999999999994345 0
177.9999999999626 5.999999999989146 0
177.9999999999903 7.999999999984009 0
178.000000000018 9.999999999986468 0
178.0000000000456 11.99999999998918 0
178.0000000000733 13.99999999999188 0
178.000000000101 15.99999999999459 0
178.0000000001287 17.99999999999729 0
179.9999999999158 1.999999999998539 0
179.9999999999409 3.999999999994283 0
179.9999999999661 5.999999999989027 0
179.9999999999912 7.999999999983831 0
180.0000000000164 9.999999999986317 0
180.0000000000415 11.99999999998906 0
180.0000000000667 13.99999999999178 0
180.0000000000918 15.99999999999453 0
180.0000000001169 17.99999999999726 0
181.9999999999242 1.999999999998523 0
181.9999999999468 3.99999999999422 0
181.9999999999695 5.999999999988904 0
181.9999999999921 7.99999999998365 0
182.0000000000147 9.999999999986169 0
182.0000000000374 11.99999999998893 0
182.00000000006 13.99999999999169 0
182.0000000000826 15.99999999999447 0
182.0000000001052 17.99999999999724 0
183.9999999999326 1.999999999998507 0
183.9999999999527 3.999999999994156 0
183.9999999999728 5.999999999988783 0
183.999999999993 7.999999999983471 0
184.0000000000131 9.999999999986011 0
184.0000000000332 11.99999999998881 0
184.0000000000533 13.9999999999916 0
184.0000000000734 15.9999999999944 0
184.0000000000936 17.9999999999972 0
185.999999999941 1.99999999999849 0
185.9999999999586 3.999999999994093 0
185.9999999999762 5.99999999998866 0
185.9999999999938 7.999999999983292 0
186.0000000000114 9.999999999985864 0
186.000000000029 11.99999999998869 0
186.0000000000466 13.99999999999152 0
186.0000000000642 15.99999999999435 0
186.0000000000819 17.99999999999718 0
187.9999999999494 1.999999999998475 0
187.9999999999645 3.999999999994028 0
187.9999999999796 5.999999999988538 0
187.9999999999947 7.999999999983112 0
188.0000000000098 9.999999999985709 0
188.0000000000249 11.99999999998857 0
188.00000000004 13.99999999999142 0
188.0000000000551 15.99999999999428 0
188.0000000000702 17.99999999999715 0
189.9999999999579 1.999999999998459 0
189.9999999999704 3.999999999993966 0
189.9999999999831 5.999999999988417 0
189.9999999999956 7.999999999982931 0
190.0000000000082 9.999999999985556 0
190.0000000000207 11.99999999998845 0
190.0000000000333 13.99999999999133 0
190.0000000000459 15.99999999999423 0
190.0000000000584 17.99999999999711 0
191.9999999999663 1.999999999998442 0
191.9999999999764 3.999999999993901 0
191.9999999999865 5.999999999988295 0
191.9999999999964 7.999999999982753 0
192.0000000000065 9.999999999985407 0
192.0000000000166 11.99999999998833 0
192.0000000000267 13.99999999999124 0
192.0000000000367 15.99999999999416 0
192.0000000000468 17.99999999999708 0
193.9999999999747 1.999999999998426 0
193.9999999999823 3.999999999993839 0
193.9999999999898 5.999999999988171 0
193.9999999999974 7.999999999982573 0
194.0000000000049 9.999999999985253 0
194.0000000000124 11.9999999999882 0
194.00000000002 13.99999999999115 0
194.0000000000275 15.9999999999941 0
194.0000000000351 17.99999999999705 0
195.9999999999831 1.99999999999841 0
195.9999999999882 3.999999999993775 0
195.9999999999932 5.99999999998805 0
195.9999999999983 7.999999999982395 0
196.0000000000033 9.999999999985103 0
196.0000000000083 11.99999999998808 0
196.0000000000133 13.99999999999106 0
196.0000000000183 15.99999999999404 0
196.0000000000234 17.99999999999702 0
197.9999999999915 1.999999999998394 0
197.9999999999941 3.999999999993712 0
197.9999999999966 5.999999999987929 0
197.9999999999991 7.999999999982213 0
198.0000000000016 9.999999999984954 0
198.0000000000041 11.99999999998796 0
198.0000000000067 13.99999999999097 0
198.0000000000092 15.99999999999398 0
198.0000000000117 17.99999999999699 0
$EndNodes
$Elements
3 1020 1 1020
1 2 1 10
1 2 104 
2 104 105 
3 105 106 
4 106 107 
5 107 108 
6 108 109 
7 109 110 
8 110 111 
9 111 112 
10 112 3 
1 4 1 10
11 4 212 
12 212 213 
13 213 214 
14 214 215 
15 215 216 
16 216 217 
17 217 218 
18 218 219 
19 219 220 
20 220 1 
2 1 3 1000
21 1 5 221 220 
22 220 221 222 219 
23 219 222 223 218 
24 218 223 224 217 
25 217 224 225 216 
26 216 225 226 215 
27 215 226 227 214 
28 214 227 228 213 
29 213 228 229 212 
30 212 229 211 4 
31 5 6 230 221 
32 221 230 231 222 
33 222 231 232 223 
34 223 232 233 224 
35 224 233 234 225 
36 225 234 235 226 
37 226 235 236 227 
38 227 236 237 228 
39 228 237 238 229 
40 229 238 210 211 
41 6 7 239 230 
42 230 239 240 231 
43 231 240 241 232 
44 232 241 242 233 
45 233 242 243 234 
46 234 243 244 235 
47 235 244 245 236 
48 236 245 246 237 
49 237 246 247 238 
50 238 247 209 210 
51 7 8 248 239 
52 239 248 249 240 
53 240 249 250 241 
54 241 250 251 242 
55 242 251 252 243 
56 243 252 253 244 
57 244 253 254 245 
58 245 254 255 246 
59 246 255 256 247 
60 247 256 208 209 
61 8 9 257 248 
62 248 257 258 249 
63 249 258 259 250 
64 250 259 260 251 
65 251 260 261 252 
66 252 261 262 253 
67 253 262 263 254 
68 254 263 264 255 
69 255 264 265 256 
70 256 265 207 208 
71 9 10 266 257 
72 257 266 267 258 
73 258 267 268 259 
74 259 268 269 260 
75 260 269 270 261 
76 261 270 271 262 
77 262 271 272 263 
78 263 272 273 264 
79 264 273 274 265 
80 265 274 206 207 
81 10 11 275 266 
82 266 275 276 267 
83 267 276 277 268 
84 268 277 278 269 
85 269 278 279 270 
86 270 279 280 271 
87 271 280 281 272 
88 272 281 282 273 
89 273 282 283 274 
90 274 283 205 206 
91 11 12 284 275 
92 275 284 285 276 
93 276 285 286 277 
94 277 286 287 278 
95 278 287 288 279 
96 279 288 289 280 
97 280 289 290 281 
98 281 290 291 282 
99 282 291 292 283 
100 283 292 204 205 
101 12 13 293 284 
102 284 293 294 285 
103 285 294 295 286 
104 286 295 296 287 
105 287 296 297 288 
106 288 297 298 289 
107 289 298 299 290 
108 290 299 300 291 
109 291 300 301 292 
110 292 301 203 204 
111 13 14 302 293 
112 293 302 303 294 
113 294 303 304 295 
114 295 304 305 296 
115 296 305 306 297 
116 297 306 307 298 
117 298 307 308 299 
118 299 308 309 300 
119 300 309 310 301 
120 301 310 202 203 
121 14 15 311 302 
122 302 311 312 303 
123 303 312 313 304 
124 304 313 314 305 
125 305 314 315 306 
126 306 315 316 307 
127 307 316 317 308 
128 308 317 318 309 
129 309 318 319 310 
130 310 319 201 202 
131 15 16 320 311 
132 311 320 321 312 
133 312 321 322 313 
134 313 322 323 314 
135 314 323 324 315 
136 315 324 325 316 
137 316 325 326 317 
138 317 326 327 318 
139 318 327 328 319 
140 319 328 200 201 
141 16 17 329 320 
142 320 329 330 321 
143 321 330 331 322 
144 322 331 332 323 
145 323 332 333 324 
146 324 333 334 325 
147 325 334 335 326 
148 326 335 336 327 
149 327 336 337 328 
150 328 337 199 200 
151 17 18 338 329 
152 329 338 339 330 
153 330 339 340 331 
154 331 340 341 332 
155 332 341 342 333 
156 333 342 343 334 
157 334 343 344 335 
158 335 344 345 336 
159 336 345 346 337 
160 337 346 198 199 
161 18 19 347 338 
162 338 347 348 339 
163 339 348 349 340 
164 340 349 350 341 
165 341 350 351 342 
166 342 351 352 343 
167 343 352 353 344 
168 344 353 354 345 
169 345 354 355 346 
170 346 355 197 198 
171 19 20 356 347 
172 347 356 357 348 
173 348 357 358 349 
174 349 358 359 350 
175 350 359 360 351 
176 351 360 361 352 
177 352 361 362 353 
178 353 362 363 354 
179 354 363 364 355 
180 355 364 196 197 
181 20 21 365 356 
182 356 365 366 357 
183 357 366 367 358 
184 358 367 368 359 
185 359 368 369 360 
186 360 369 370 361 
187 361 370 371 362 
188 362 371 372 363 
189 363 372 373 364 
190 364 373 195 196 
191 21 22 374 365 
192 365 374 375 366 
193 366 375 376 367 
194 367 376 377 368 
195 368 377 378 369 
196 369 378 379 370 
197 370 379 380 371 
198 371 380 381 372 
199 372 381 382 373 
200 373 382 194 195 
201 22 23 383 374 
202 374 383 384 375 
203 375 384 385 376 
204 376 385 386 377 
205 377 386 387 378 
206 378 387 388 379 
207 379 388 389 380 
208 380 389 390 381 
209 381 390 391 382 
210 382 391 193 194 
211 23 24 392 383 
212 383 392 393 384 
213 384 393 394 385 
214 385 394 395 386 
215 386 395 396 387 
216 387 396 397 388 
217 388 397 398 389 
218 389 398 399 390 
219 390 399 400 391 
220 391 400 192 193 
221 24 25 401 392 
222 392 401 402 393 
223 393 402 403 394 
224 394 403 404 395 
225 395 404 405 396 
226 396 405 406 397 
227 397 406 407 398 
228 398 407 408 399 
229 399 408 409 400 
230 400 409 191 192 
231 25 26 410 401 
232 401 410 411 402 
233 402 411 412 403 
234 403 412 413 404 
235 404 413 414 405 
236 405 414 415 406 
237 406 415 416 407 
238 407 416 417 408 
239 408 417 418 409 
240 409 418 190 191 
241 26 27 419 410 
242 410 419 420 411 
243 411 420 421 412 
244 412 421 422 413 
245 413 422 423 414 
246 414 423 424 415 
247 415 424 425 416 
248 416 425 426 417 
249 417 426 427 418 
250 418 427 189 190 
251 27 28 428 419 
252 419 428 429 420 
253 420 429 430 421 
254 421 430 431 422 
255 422 431 432 423 
256 423 432 433 424 
257 424 433 434 425 
258 425 434 435 426 
259 426 435 436 427 
260 427 436 188 189 
261 28 29 437 428 
262 428 437 438 429 
263 429 438 439 430 
264 430 439 440 431 
265 431 440 441 432 
266 432 441 442 433 
267 433 442 443 434 
268 434 443 444 435 
269 435 444 445 436 
270 436 445 187 188 
271 29 30 446 437 
272 437 446 447 438 
273 438 447 448 439 
274 439 448 449 440 
275 440 449 450 441 
276 441 450 451 442 
277 442 451 452 443 
278 443 452 453 444 
279 444 453 454 445 
280 445 454 186 187 
281 30 31 455 446 
282 446 455 456 447 
283 447 456 457 448 
284 448 457 458 449 
285 449 458 459 450 
286 450 459 460 451 
287 451 460 461 452 
288 452 461 462 453 
289 453 462 463 454 
290 454 463 185 186 
291 31 32 464 455 
292 455 464 465 456 
293 456 465 466 457 
294 457 466 467 458 
295 458 467 468 459 
296 459 468 469 460 
297 460 469 470 461 
298 461 470 471 462 
299 462 471 472 463 
300 463 472 184 185 
301 32 33 473 464 
302 464 473 474 465 
303 465 474 475 466 
304 466 475 476 467 
305 467 476 477 468 
306 468 477 478 469 
307 469 478 479 470 
308 470 479 480 471 
309 471 480 481 472 
310 472 481 183 184 
311 33 34 482 473 
312 473 482 483 474 
313 474 483 484 475 
314 475 484 485 476 
315 476 485 486 477 
316 477 486 487 478 
317 478 487 488 479 
318 479 488 489 480 
319 480 489 490 481 
320 481 490 182 183 
321 34 35 491 482 
322 482 491 492 483 
323 483 492 493 484 
324 484 493 494 485 
325 485 494 495 486 
326 486 495 496 487 
327 487 496 497 488 
328 488 497 498 489 
329 489 498 499 490 
330 490 499 181 182 
331 35 36 500 491 
332 491 500 501 492 
333 492 501 502 493 
334 493 502 503 494 
335 494 503 504 495 
336 495 504 505 496 
337 496 505 506 497 
338 497 506 507 498 
339 498 507 508 499 
340 499 508 180 181 
341 36 37 509 500 
342 500 509 510 501 
343 501 510 511 502 
344 502 511 512 503 
345 503 512 513 504 
346 504 513 514 505 
347 505 514 515 506 
348 506 515 516 507 
349 507 516 517 508 
350 508 517 179 180 
351 37 38 518 509 
352 509 518 519 510 
353 510 519 520 511 
354 511 520 521 512 
355 512 521 522 513 
356 513 522 523 514 
357 514 523 524 515 
358 515 524 525 516 
359 516 525 526 517 
360 517 526 178 179 
361 38 39 527 518 
362 518 527 528 519 
363 519 528 529 520 
364 520 529 530 521 
365 521 530 531 522 
366 522 531 532 523 
367 523 532 533 524 
368 524 533 534 525 
369 525 534 535 526 
370 526 535 177 178 
371 39 40 536 527 
372 527 536 537 528 
373 528 537 538 529 
374 529 538 539 530 
375 530 539 540 531 
376 531 540 541 532 
377 532 541 542 533 
378 533 542 543 534 
379 534 543 544 535 
380 535 544 176 177 
381 40 41 545 536 
382 536 545 546 537 
383 537 546 547 538 
384 538 547 548 539 
385 539 548 549 540 
386 540 549 550 541 
387 541 550 551 542 
388 542 551 552 543 
389 543 552 553 544 
390 544 553 175 176 
391 41 42 554 545 
392 545 554 555 546 
393 546 555 556 547 
394 547 556 557 548 
395 548 557 558 549 
396 549 558 559 550 
397 550 559 560 551 
398 551 560 561 552 
399 552 561 562 553 
400 553 562 174 175 
401 42 43 563 554 
402 554 563 564 555 
403 555 564 565 556 
404 556 565 566 557 
405 557 566 567 558 
406 558 567 568 559 
407 559 568 569 560 
408 560 569 570 561 
409 561 570 571 562 
410 562 571 173 174 
411 43 44 572 563 
412 563 572 573 564 
413 564 573 574 565 
414 565 574 575 566 
415 566 575 576 567 
416 567 576 577 568 
417 568 577 578 569 
418 569 578 579 570 
419 570 579 580 571 
420 571 580 172 173 
421 44 45 581 572 
422 572 581 582 573 
423 573 582 583 574 
424 574 583 584 575 
425 575 584 585 576 
426 576 585 586 577 
427 577 586 587 578 
428 578 587 588 579 
429 579 588 589 580 
430 580 589 171 172 
431 45 46 590 581 
432 581 590 591 582 
433 582 591 592 583 
434 583 592 593 584 
435 584 593 594 585 
436 585 594 595 586 
437 586 595 596 587 
438 587 596 597 588 
439 588 597 598 589 
440 589 598 170 171 
441 46 47 599 590 
442 590 599 600 591 
443 591 600 601 592 
444 592 601 602 593 
445 593 602 603 594 
446 594 603 604 595 
447 595 604 605 596 
448 596 605 606 597 
449 597 606 607 598 
450 598 607 169 170 
451 47 48 608 599 
452 599 608 609 600 
453 600 609 610 601 
454 601 610 611 602 
455 602 611 612 603 
456 603 612 613 604 
457 604 613 614 605 
458 605 614 615 606 
459 606 615 616 607 
460 607 616 168 169 
461 48 49 617 608 
462 608 617 618 609 
463 609 618 619 610 
464 610 619 620 611 
465 611 620 621 612 
466 612 621 622 613 
467 613 622 623 614 
468 614 623 624 615 
469 615 624 625 616 
470 616 625 167 168 
471 49 50 626 617 
472 617 626 627 618 
473 618 627 628 619 
474 619 628 629 620 
475 620 629 630 621 
476 621 630 631 622 
477 622 631 632 623 
478 623 632 633 624 
479 624 633 634 625 
480 625 634 166 167 
481 50 51 635 626 
482 626 635 636 627 
483 627 636 637 628 
484 628 637 638 629 
485 629 638 639 630 
486 630 639 640 631 
487 631 640 641 632 
488 632 641 642 633 
489 633 642 643 634 
490 634 643 165 166 
491 51 52 644 635 
492 635 644 645 636 
493 636 645 646 637 
494 637 646 647 638 
495 638 647 648 639 
496 639 648 649 640 
497 640 649 650 641 
498 641 650 651 642 
499 642 651 652 643 
500 643 652 164 165 
501 52 53 653 644 
502 644 653 654 645 
503 645 654 655 646 
504 646 655 656 647 
505 647 656 657 648 
506 648 657 658 649 
507 649 658 659 650 
508 650 659 660 651 
509 651 660 661 652 
510 652 661 163 164 
511 53 54 662 653 
512 653 662 663 654 
513 654 663 664 655 
514 655 664 665 656 
515 656 665 666 657 
516 657 666 667 658 
517 658 667 668 659 
518 659 668 669 660 
519 660 669 670 661 
520 661 670 162 163 
521 54 55 671 662 
522 662 671 672 663 
523 663 672 673 664 
524 664 673 674 665 
525 665 674 675 666 
526 666 675 676 667 
527 667 676 677 668 
528 668 677 678 669 
529 669 678 679 670 
530 670 679 161 162 
531 55 56 680 671 
532 671 680 681 672 
533 672 681 682 673 
534 673 682 683 674 
535 674 683 684 675 
536 675 684 685 676 
537 676 685 686 677 
538 677 686 687 678 
539 678 687 688 679 
540 679 688 160 161 
541 56 57 689 680 
542 680 689 690 681 
543 681 690 691 682 
544 682 691 692 683 
545 683 692 693 684 
546 684 693 694 685 
547 685 694 695 686 
548 686 695 696 687 
549 687 696 697 688 
550 688 697 159 160 
551 57 58 698 689 
552 689 698 699 690 
553 690 699 700 691 
554 691 700 701 692 
555 692 701 702 693 
556 693 702 703 694 
557 694 703 704 695 
558 695 704 705 696 
559 696 705 706 697 
560 697 706 158 159 
561 58 59 707 698 
562 698 707 708 699 
563 699 708 709 700 
564 700 709 710 701 
565 701 710 711 702 
566 702 711 712 703 
567 703 712 713 704 
568 704 713 714 705 
569 705 714 715 706 
570 706 715 157 158 
571 59 60 716 707 
572 707 716 717 708 
573 708 717 718 709 
574 709 718 719 710 
575 710 719 720 711 
576 711 720 721 712 
577 712 721 722 713 
578 713 722 723 714 
579 714 723 724 715 
580 715 724 156 157 
581 60 61 725 716 
582 716 725 726 717 
583 717 726 727 718 
584 718 727 728 719 
585 719 728 729 720 
586 720 729 730 721 
587 721 730 731 722 
588 722 731 732 723 
589 723 732 733 724 
590 724 733 155 156 
591 61 62 734 725 
592 725 734 735 726 
593 726 735 736 727 
594 727 736 737 728 
595 728 737 738 729 
596 729 738 739 730 
597 730 739 740 731 
598 731 740 741 732 
599 732 741 742 733 
600 733 742 154 155 
601 62 63 743 734 
602 734 743 744 735 
603 735 744 745 736 
604 736 745 746 737 
605 737 746 747 738 
606 738 747 748 739 
607 739 748 749 740 
608 740 749 750 741 
609 741 750 751 742 
610 742 751 153 154 
611 63 64 752 743 
612 743 752 753 744 
613 744 753 754 745 
614 745 754 755 746 
615 746 755 756 747 
616 747 756 757 748 
617 748 757 758 749 
618 749 758 759 750 
619 750 759 760 751 
620 751 760 152 153 
621 64 65 761 752 
622 752 761 762 753 
623 753 762 763 754 
624 754 763 764 755 
625 755 764 765 756 
626 756 765 766 757 
627 757 766 767 758 
628 758 767 768 759 
629 759 768 769 760 
630 760 769 151 152 
631 65 66 770 761 
632 761 770 771 762 
633 762 771 772 763 
634 763 772 773 764 
635 764 773 774 765 
636 765 774 775 766 
637 766 775 776 767 
638 767 776 777 768 
639 768 777 778 769 
640 769 778 150 151 
641 66 67 779 770 
642 770 779 780 771 
643 771 780 781 772 
644 772 781 782 773 
645 773 782 783 774 
646 774 783 784 775 
647 775 784 785 776 
648 776 785 786 777 
649 777 786 787 778 
650 778 787 149 150 
651 67 68 788 779 
652 779 788 789 780 
653 780 789 790 781 
654 781 790 791 782 
655 782 791 792 783 
656 783 792 793 784 
657 784 793 794 785 
658 785 794 795 786 
659 786 795 796 787 
660 787 796 148 149 
661 68 69 797 788 
662 788 797 798 789 
663 789 798 799 790 
664 790 799 800 791 
665 791 800 801 792 
666 792 801 802 793 
667 793 802 803 794 
668 794 803 804 795 
669 795 804 805 796 
670 796 805 147 148 
671 69 70 806 797 
672 797 806 807 798 
673 798 807 808 799 
674 799 808 809 800 
675 800 809 810 801 
676 801 810 811 802 
677 802 811 812 803 
678 803 812 813 804 
679 804 813 814 805 
680 805 814 146 147 
681 70 71 815 806 
682 806 815 816 807 
683 807 816 817 808 
684 808 817 818 809 
685 809 818 819 810 
686 810 819 820 811 
687 811 820 821 812 
688 812 821 822 813 
689 813 822 823 814 
690 814 823 145 146 
691 71 72 824 815 
692 815 824 825 816 
693 816 825 826 817 
694 817 826 827 818 
695 818 827 828 819 
696 819 828 829 820 
697 820 829 830 821 
698 821 830 831 822 
699 822 831 832 823 
700 823 832 144 145 
701 72 73 833 824 
702 824 833 834 825 
703 825 834 835 826 
704 826 835 836 827 
705 827 836 837 828 
706 828 837 838 829 
707 829 838 839 830 
708 830 839 840 831 
709 831 840 841 832 
710 832 841 143 144 
711 73 74 842 833 
712 833 842 843 834 
713 834 843 844 835 
714 835 844 845 836 
715 836 845 846 837 
716 837 846 847 838 
717 838 847 848 839 
718 839 848 849 840 
719 840 849 850 841 
720 841 850 142 143 
721 74 75 851 842 
722 842 851 852 843 
723 843 852 853 844 
724 844 853 854 845 
725 845 854 855 846 
726 846 855 856 847 
727 847 856 857 848 
728 848 857 858 849 
729 849 858 859 850 
730 850 859 141 142 
731 75 76 860 851 
732 851 860 861 852 
733 852 861 862 853 
734 853 862 863 854 
735 854 863 864 855 
736 855 864 865 856 
737 856 865 866 857 
738 857 866 867 858 
739 858 867 868 859 
740 859 868 140 141 
741 76 77 869 860 
742 860 869 870 861 
743 861 870 871 862 
744 862 871 872 863 
745 863 872 873 864 
746 864 873 874 865 
747 865 874 875 866 
748 866 875 876 867 
749 867 876 877 868 
750 868 877 139 140 
751 77 78 878 869 
752 869 878 879 870 
753 870 879 880 871 
754 871 880 881 872 
755 872 881 882 873 
756 873 882 883 874 
757 874 883 884 875 
758 875 884 885 876 
759 876 885 886 877 
760 877 886 138 139 
761 78 79 887 878 
762 878 887 888 879 
763 879 888 889 880 
764 880 889 890 881 
765 881 890 891 882 
766 882 891 892 883 
767 883 892 893 884 
768 884 893 894 885 
769 885 894 895 886 
770 886 895 137 138 
771 79 80 896 887 
772 887 896 897 888 
773 888 897 898 889 
774 889 898 899 890 
775 890 899 900 891 
776 891 900 901 892 
777 892 901 902 893 
778 893 902 903 894 
779 894 903 904 895 
780 895 904 136 137 
781 80 81 905 896 
782 896 905 906 897 
783 897 906 907 898 
784 898 907 908 899 
785 899 908 909 900 
786 900 909 910 901 
787 901 910 911 902 
788 902 911 912 903 
789 903 912 913 904 
790 904 913 135 136 
791 81 82 914 905 
792 905 914 915 906 
793 906 915 916 907 
794 907 916 917 908 
795 908 917 918 909 
796 909 918 919 910 
797 910 919 920 911 
798 911 920 921 912 
799 912 921 922 913 
800 913 922 134 135 
801 82 83 923 914 
802 914 923 924 915 
803 915 924 925 916 
804 916 925 926 917 
805 917 926 927 918 
806 918 927 928 919 
807 919 928 929 920 
808 920 929 930 921 
809 921 930 931 922 
810 922 931 133 134 
811 83 84 932 923 
812 923 932 933 924 
813 924 933 934 925 
814 925 934 935 926 
815 926 935 936 927 
816 927 936 937 928 
817 928 937 938 929 
818 929 938 939 930 
819 930 939 940 931 
820 931 940 132 133 
821 84 85 941 932 
822 932 941 942 933 
823 933 942 943 934 
824 934 943 944 935 
825 935 944 945 936 
826 936 945 946 937 
827 937 946 947 938 
828 938 947 948 939 
829 939 948 949 940 
830 940 949 131 132 
831 85 86 950 941 
832 941 950 951 942 
833 942 951 952 943 
834 943 952 953 944 
835 944 953 954 945 
836 945 954 955 946 
837 946 955 956 947 
838 947 956 957 948 
839 948 957 958 949 
840 949 958 130 131 
841 86 87 959 950 
842 950 959 960 951 
843 951 960 961 952 
844 952 961 962 953 
845 953 962 963 954 
846 954 963 964 955 
847 955 964 965 956 
848 956 965 966 957 
849 957 966 967 958 
850 958 967 129 130 
851 87 88 968 959 
852 959 968 969 960 
853 960 969 970 961 
854 961 970 971 962 
855 962 971 972 963 
856 963 972 973 964 
857 964 973 974 965 
858 965 974 975 966 
859 966 975 976 967 
860 967 976 128 129 
861 88 89 977 968 
862 968 977 978 969 
863 969 978 979 970 
864 970 979 980 971 
865 971 980 981 972 
866 972 981 982 973 
867 973 982 983 974 
868 974 983 984 975 
869 975 984 985 976 
870 976 985 127 128 
871 89 90 986 977 
872 977 986 987 978 
873 978 987 988 979 
874 979 988 989 980 
875 980 989 990 981 
876 981 990 991 982 
877 982 991 992 983 
878 983 992 993 984 
879 984 993 994 985 
880 985 994 126 127 
881 90 91 995 986 
882 986 995 996 987 
883 987 996 997 988 
884 988 997 998 989 
885 989 998 999 990 
886 990 999 1000 991 
887 991 1000 1001 992 
888 992 1001 1002 993 
889 993 1002 1003 994 
890 994 1003 125 126 
891 91 92 1004 995 
892 995 1004 1005 996 
893 996 1005 1006 997 
894 997 1006 1007 998 
895 998 1007 1008 999 
896 999 1008 1009 1000 
897 1000 1009 1010 1001 
898 1001 1010 1011 1002 
899 1002 1011 1012 1003 
900 1003 1012 124 125 
901 92 93 1013 1004 
902 1004 1013 1014 1005 
903 1005 1014 1015 1006 
904 1006 1015 1016 1007 
905 1007 1016 1017 1008 
906 1008 1017 1018 1009 
907 1009 1018 1019 1010 
908 1010 1019 1020 1011 
909 1011 1020 1021 1012 
910 1012 1021 123 124 
911 93 94 1022 1013 
912 1013 1022 1023 1014 
913 1014 1023 1024 1015 
914 1015 1024 1025 1016 
915 1016 1025 1026 1017 
916 1017 1026 1027 1018 
917 1018 1027 1028 1019 
918 1019 1028 1029 1020 
919 1020 1029 1030 1021 
920 1021 1030 122 123 
921 94 95 1031 1022 
922 1022 1031 1032 1023 
923 1023 1032 1033 1024 
924 1024 1033 1034 1025 
925 1025 1034 1035 1026 
926 1026 1035 1036 1027 
927 1027 1036 1037 1028 
928 1028 1037 1038 1029 
929 1029 1038 1039 1030 
930 1030 1039 121 122 
931 95 96 1040 1031 
932 1031 1040 1041 1032 
933 1032 1041 1042 1033 
934 1033 1042 1043 1034 
935 1034 1043 1044 1035 
936 1035 1044 1045 1036 
937 1036 1045 1046 1037 
938 1037 1046 1047 1038 
939 1038 1047 1048 1039 
940 1039 1048 120 121 
941 96 97 1049 1040 
942 1040 1049 1050 1041 
943 1041 1050 1051 1042 
944 1042 1051 1052 1043 
945 1043 1052 1053 1044 
946 1044 1053 1054 1045 
947 1045 1054 1055 1046 
948 1046 1055 1056 1047 
949 1047 1056 1057 1048 
950 1048 1057 119 120 
951 97 98 1058 1049 
952 1049 1058 1059 1050 
953 1050 1059 1060 1051 
954 1051 1060 1061 1052 
955 1052 1061 1062 1053 
956 1053 1062 1063 1054 
957 1054 1063 1064 1055 
958 1055 1064 1065 1056 
959 1056 1065 1066 1057 
960 1057 1066 118 119 
961 98 99 1067 1058 
962 1058 1067 1068 1059 
963 1059 1068 1069 1060 
964 1060 1069 1070 1061 
965 1061 1070 1071 1062 
966 1062 1071 1072 1063 
967 1063 1072 1073 1064 
968 1064 1073 1074 1065 
969 1065 1074 1075 1066 
970 1066 1075 117 118 
971 99 100 1076 1067 
972 1067 1076 1077 1068 
973 1068 1077 1078 1069 
974 1069 1078 1079 1070 
975 1070 1079 1080 1071 
976 1071 1080 1081 1072 
977 1072 1081 1082 1073 
978 1073 1082 1083 1074 
979 1074 1083 1084 1075 
980 1075 1084 116 117 
981 100 101 1085 1076 
982 1076 1085 1086 1077 
983 1077 1086 1087 1078 
984 1078 1087 1088 1079 
985 1079 1088 1089 1080 
986 1080 1089 1090 1081 
987 1081 1090 1091 1082 
988 1082 1091 1092 1083 
989 1083 1092 1093 1084 
990 1084 1093 115 116 
991 101 102 1094 1085 
992 1085 1094 1095 1086 
993 1086 1095 1096 1087 
994 1087 1096 1097 1088 
995 1088 1097 1098 1089 
996 1089 1098 1099 1090 
997 1090 1099 1100 1091 
998 1091 1100 1101 1092 
999 1092 1101 1102 1093 
1000 1093 1102 114 115 
1001 102 103 1103 1094 
1002 1094 1103 1104 1095 
1003 1095 1104 1105 1096 
1004 1096 1105 1106 1097 
1005 1097 1106 1107 1098 
1006 1098 1107 1108 1099 
1007 1099 1108 1109 1100 
1008 1100 1109 1110 1101 
1009 1101 1110 1111 1102 
1010 1102 1111 113 114 
1011 103 2 104 1103 
1012 1103 104 105 1104 
1013 1104 105 106 1105 
1014 1105 106 107 1106 
1015 1106 107 108 1107 
1016 1107 108 109 1108 
1017 1108 109 110 1109 
1018 1109 110 111 1110 
1019 1110 111 112 1111 
1020 1111 112 3 113 
$EndElements
